<mxfile host="app.diagrams.net" agent="Mozilla/5.0 (Windows NT 10.0; Win64; x64) AppleWebKit/537.36 (KHTML, like Gecko) Chrome/134.0.0.0 YaBrowser/25.4.0.0 Safari/537.36" version="26.2.14">
  <diagram name="Страница — 1" id="xTnksoeDkbkGy9qwkQ83">
    <mxGraphModel dx="1042" dy="1749" grid="1" gridSize="10" guides="1" tooltips="1" connect="1" arrows="1" fold="1" page="1" pageScale="1" pageWidth="827" pageHeight="1169" math="0" shadow="0">
      <root>
        <mxCell id="0" />
        <mxCell id="1" parent="0" />
        <mxCell id="0FeiDIV4A2AakAv4v174-45" value="" style="rounded=1;whiteSpace=wrap;html=1;" vertex="1" parent="1">
          <mxGeometry x="980" y="160" width="530" height="320" as="geometry" />
        </mxCell>
        <mxCell id="0FeiDIV4A2AakAv4v174-43" value="" style="rounded=1;whiteSpace=wrap;html=1;" vertex="1" parent="1">
          <mxGeometry x="980" y="-160" width="370" height="290" as="geometry" />
        </mxCell>
        <mxCell id="0FeiDIV4A2AakAv4v174-3" style="edgeStyle=orthogonalEdgeStyle;rounded=0;orthogonalLoop=1;jettySize=auto;html=1;entryX=0;entryY=0.5;entryDx=0;entryDy=0;" edge="1" parent="1" source="0FeiDIV4A2AakAv4v174-1" target="0FeiDIV4A2AakAv4v174-2">
          <mxGeometry relative="1" as="geometry" />
        </mxCell>
        <mxCell id="0FeiDIV4A2AakAv4v174-1" value="Логинится&amp;nbsp;&lt;div&gt;персонал&lt;/div&gt;" style="rounded=0;whiteSpace=wrap;html=1;" vertex="1" parent="1">
          <mxGeometry x="40" y="40" width="120" height="60" as="geometry" />
        </mxCell>
        <mxCell id="0FeiDIV4A2AakAv4v174-16" style="edgeStyle=orthogonalEdgeStyle;rounded=0;orthogonalLoop=1;jettySize=auto;html=1;entryX=0;entryY=0.5;entryDx=0;entryDy=0;" edge="1" parent="1" source="0FeiDIV4A2AakAv4v174-2" target="0FeiDIV4A2AakAv4v174-15">
          <mxGeometry relative="1" as="geometry" />
        </mxCell>
        <mxCell id="0FeiDIV4A2AakAv4v174-21" style="edgeStyle=orthogonalEdgeStyle;rounded=0;orthogonalLoop=1;jettySize=auto;html=1;entryX=0.5;entryY=0;entryDx=0;entryDy=0;" edge="1" parent="1" source="0FeiDIV4A2AakAv4v174-2" target="0FeiDIV4A2AakAv4v174-13">
          <mxGeometry relative="1" as="geometry" />
        </mxCell>
        <mxCell id="0FeiDIV4A2AakAv4v174-2" value="Окно&amp;nbsp;&lt;div&gt;Home&lt;/div&gt;" style="rounded=0;whiteSpace=wrap;html=1;" vertex="1" parent="1">
          <mxGeometry x="240" y="40" width="120" height="60" as="geometry" />
        </mxCell>
        <mxCell id="0FeiDIV4A2AakAv4v174-28" style="edgeStyle=orthogonalEdgeStyle;rounded=0;orthogonalLoop=1;jettySize=auto;html=1;entryX=0;entryY=0.5;entryDx=0;entryDy=0;" edge="1" parent="1" source="0FeiDIV4A2AakAv4v174-4" target="0FeiDIV4A2AakAv4v174-27">
          <mxGeometry relative="1" as="geometry" />
        </mxCell>
        <mxCell id="0FeiDIV4A2AakAv4v174-4" value="Окно&lt;br&gt;Оборудывание" style="rounded=0;whiteSpace=wrap;html=1;" vertex="1" parent="1">
          <mxGeometry x="560" y="40" width="120" height="60" as="geometry" />
        </mxCell>
        <mxCell id="0FeiDIV4A2AakAv4v174-6" value="Окно&amp;nbsp;&lt;div&gt;Лицензии ПО&lt;/div&gt;" style="rounded=0;whiteSpace=wrap;html=1;" vertex="1" parent="1">
          <mxGeometry x="560" y="160" width="120" height="60" as="geometry" />
        </mxCell>
        <mxCell id="0FeiDIV4A2AakAv4v174-8" value="Окно&lt;div&gt;Обслуживания&lt;/div&gt;" style="rounded=0;whiteSpace=wrap;html=1;" vertex="1" parent="1">
          <mxGeometry x="560" y="280" width="120" height="60" as="geometry" />
        </mxCell>
        <mxCell id="0FeiDIV4A2AakAv4v174-11" value="Окно&lt;br&gt;Отчётов" style="rounded=0;whiteSpace=wrap;html=1;" vertex="1" parent="1">
          <mxGeometry x="560" y="400" width="120" height="60" as="geometry" />
        </mxCell>
        <mxCell id="0FeiDIV4A2AakAv4v174-22" style="edgeStyle=orthogonalEdgeStyle;rounded=0;orthogonalLoop=1;jettySize=auto;html=1;entryX=0.25;entryY=1;entryDx=0;entryDy=0;" edge="1" parent="1" source="0FeiDIV4A2AakAv4v174-13" target="0FeiDIV4A2AakAv4v174-15">
          <mxGeometry relative="1" as="geometry" />
        </mxCell>
        <mxCell id="0FeiDIV4A2AakAv4v174-24" style="edgeStyle=orthogonalEdgeStyle;rounded=0;orthogonalLoop=1;jettySize=auto;html=1;entryX=0;entryY=0.5;entryDx=0;entryDy=0;" edge="1" parent="1" source="0FeiDIV4A2AakAv4v174-13" target="0FeiDIV4A2AakAv4v174-23">
          <mxGeometry relative="1" as="geometry">
            <Array as="points">
              <mxPoint x="430" y="190" />
              <mxPoint x="430" y="555" />
            </Array>
          </mxGeometry>
        </mxCell>
        <mxCell id="0FeiDIV4A2AakAv4v174-26" style="edgeStyle=orthogonalEdgeStyle;rounded=0;orthogonalLoop=1;jettySize=auto;html=1;entryX=0;entryY=0.5;entryDx=0;entryDy=0;" edge="1" parent="1" source="0FeiDIV4A2AakAv4v174-13" target="0FeiDIV4A2AakAv4v174-25">
          <mxGeometry relative="1" as="geometry">
            <Array as="points">
              <mxPoint x="430" y="190" />
              <mxPoint x="430" y="670" />
            </Array>
          </mxGeometry>
        </mxCell>
        <mxCell id="0FeiDIV4A2AakAv4v174-13" value="Администратор" style="rounded=0;whiteSpace=wrap;html=1;" vertex="1" parent="1">
          <mxGeometry x="240" y="160" width="120" height="60" as="geometry" />
        </mxCell>
        <mxCell id="0FeiDIV4A2AakAv4v174-17" style="edgeStyle=orthogonalEdgeStyle;rounded=0;orthogonalLoop=1;jettySize=auto;html=1;entryX=0;entryY=0.5;entryDx=0;entryDy=0;" edge="1" parent="1" source="0FeiDIV4A2AakAv4v174-15" target="0FeiDIV4A2AakAv4v174-4">
          <mxGeometry relative="1" as="geometry" />
        </mxCell>
        <mxCell id="0FeiDIV4A2AakAv4v174-18" style="edgeStyle=orthogonalEdgeStyle;rounded=0;orthogonalLoop=1;jettySize=auto;html=1;entryX=0;entryY=0.5;entryDx=0;entryDy=0;" edge="1" parent="1" source="0FeiDIV4A2AakAv4v174-15" target="0FeiDIV4A2AakAv4v174-6">
          <mxGeometry relative="1" as="geometry">
            <Array as="points">
              <mxPoint x="450" y="190" />
            </Array>
          </mxGeometry>
        </mxCell>
        <mxCell id="0FeiDIV4A2AakAv4v174-19" style="edgeStyle=orthogonalEdgeStyle;rounded=0;orthogonalLoop=1;jettySize=auto;html=1;entryX=0;entryY=0.5;entryDx=0;entryDy=0;" edge="1" parent="1" source="0FeiDIV4A2AakAv4v174-15" target="0FeiDIV4A2AakAv4v174-8">
          <mxGeometry relative="1" as="geometry">
            <Array as="points">
              <mxPoint x="450" y="310" />
            </Array>
          </mxGeometry>
        </mxCell>
        <mxCell id="0FeiDIV4A2AakAv4v174-20" style="edgeStyle=orthogonalEdgeStyle;rounded=0;orthogonalLoop=1;jettySize=auto;html=1;entryX=0;entryY=0.5;entryDx=0;entryDy=0;" edge="1" parent="1" source="0FeiDIV4A2AakAv4v174-15" target="0FeiDIV4A2AakAv4v174-11">
          <mxGeometry relative="1" as="geometry">
            <Array as="points">
              <mxPoint x="450" y="430" />
            </Array>
          </mxGeometry>
        </mxCell>
        <mxCell id="0FeiDIV4A2AakAv4v174-15" value="Обычный пользователь" style="rounded=0;whiteSpace=wrap;html=1;" vertex="1" parent="1">
          <mxGeometry x="400" y="40" width="120" height="60" as="geometry" />
        </mxCell>
        <mxCell id="0FeiDIV4A2AakAv4v174-23" value="Окно&amp;nbsp;&lt;div&gt;Пользователей&lt;/div&gt;" style="rounded=0;whiteSpace=wrap;html=1;" vertex="1" parent="1">
          <mxGeometry x="560" y="525" width="120" height="60" as="geometry" />
        </mxCell>
        <mxCell id="0FeiDIV4A2AakAv4v174-25" value="Окно &lt;br&gt;Настроек" style="rounded=0;whiteSpace=wrap;html=1;" vertex="1" parent="1">
          <mxGeometry x="560" y="640" width="120" height="60" as="geometry" />
        </mxCell>
        <mxCell id="0FeiDIV4A2AakAv4v174-30" style="edgeStyle=orthogonalEdgeStyle;rounded=0;orthogonalLoop=1;jettySize=auto;html=1;" edge="1" parent="1" source="0FeiDIV4A2AakAv4v174-27" target="0FeiDIV4A2AakAv4v174-29">
          <mxGeometry relative="1" as="geometry" />
        </mxCell>
        <mxCell id="0FeiDIV4A2AakAv4v174-47" style="edgeStyle=orthogonalEdgeStyle;rounded=0;orthogonalLoop=1;jettySize=auto;html=1;entryX=0;entryY=0.5;entryDx=0;entryDy=0;" edge="1" parent="1" source="0FeiDIV4A2AakAv4v174-27" target="0FeiDIV4A2AakAv4v174-46">
          <mxGeometry relative="1" as="geometry">
            <Array as="points">
              <mxPoint x="780" y="210" />
            </Array>
          </mxGeometry>
        </mxCell>
        <mxCell id="0FeiDIV4A2AakAv4v174-27" value="Таблица&lt;div&gt;С оборудыванием&lt;/div&gt;" style="rounded=0;whiteSpace=wrap;html=1;" vertex="1" parent="1">
          <mxGeometry x="720" y="40" width="120" height="60" as="geometry" />
        </mxCell>
        <mxCell id="0FeiDIV4A2AakAv4v174-32" style="edgeStyle=orthogonalEdgeStyle;rounded=0;orthogonalLoop=1;jettySize=auto;html=1;entryX=0;entryY=0.5;entryDx=0;entryDy=0;" edge="1" parent="1" source="0FeiDIV4A2AakAv4v174-29" target="0FeiDIV4A2AakAv4v174-31">
          <mxGeometry relative="1" as="geometry" />
        </mxCell>
        <mxCell id="0FeiDIV4A2AakAv4v174-34" style="edgeStyle=orthogonalEdgeStyle;rounded=0;orthogonalLoop=1;jettySize=auto;html=1;entryX=0.5;entryY=1;entryDx=0;entryDy=0;" edge="1" parent="1" source="0FeiDIV4A2AakAv4v174-29" target="0FeiDIV4A2AakAv4v174-33">
          <mxGeometry relative="1" as="geometry" />
        </mxCell>
        <mxCell id="0FeiDIV4A2AakAv4v174-29" value="Составное ли оборудывание" style="rounded=0;whiteSpace=wrap;html=1;" vertex="1" parent="1">
          <mxGeometry x="1010" y="40" width="120" height="60" as="geometry" />
        </mxCell>
        <mxCell id="0FeiDIV4A2AakAv4v174-31" value="Поиск в БД&lt;div&gt;цельных оборудываний&lt;/div&gt;" style="rounded=0;whiteSpace=wrap;html=1;" vertex="1" parent="1">
          <mxGeometry x="1200" y="40" width="120" height="60" as="geometry" />
        </mxCell>
        <mxCell id="0FeiDIV4A2AakAv4v174-41" style="edgeStyle=orthogonalEdgeStyle;rounded=0;orthogonalLoop=1;jettySize=auto;html=1;entryX=1;entryY=0.5;entryDx=0;entryDy=0;" edge="1" parent="1" source="0FeiDIV4A2AakAv4v174-33" target="0FeiDIV4A2AakAv4v174-35">
          <mxGeometry relative="1" as="geometry" />
        </mxCell>
        <mxCell id="0FeiDIV4A2AakAv4v174-33" value="Поиск в БД не цельных компонентов по ID" style="rounded=0;whiteSpace=wrap;html=1;" vertex="1" parent="1">
          <mxGeometry x="1200" y="-130" width="120" height="60" as="geometry" />
        </mxCell>
        <mxCell id="0FeiDIV4A2AakAv4v174-42" style="edgeStyle=orthogonalEdgeStyle;rounded=0;orthogonalLoop=1;jettySize=auto;html=1;entryX=0.5;entryY=0;entryDx=0;entryDy=0;" edge="1" parent="1" source="0FeiDIV4A2AakAv4v174-35" target="0FeiDIV4A2AakAv4v174-29">
          <mxGeometry relative="1" as="geometry" />
        </mxCell>
        <mxCell id="0FeiDIV4A2AakAv4v174-35" value="Повторение этого этапа" style="rounded=0;whiteSpace=wrap;html=1;" vertex="1" parent="1">
          <mxGeometry x="1010" y="-130" width="120" height="60" as="geometry" />
        </mxCell>
        <mxCell id="0FeiDIV4A2AakAv4v174-44" value="Отображение таблицы" style="text;html=1;align=center;verticalAlign=middle;whiteSpace=wrap;rounded=0;" vertex="1" parent="1">
          <mxGeometry x="880" y="40" width="60" height="30" as="geometry" />
        </mxCell>
        <mxCell id="0FeiDIV4A2AakAv4v174-50" style="edgeStyle=orthogonalEdgeStyle;rounded=0;orthogonalLoop=1;jettySize=auto;html=1;entryX=0;entryY=0.5;entryDx=0;entryDy=0;" edge="1" parent="1" source="0FeiDIV4A2AakAv4v174-46" target="0FeiDIV4A2AakAv4v174-49">
          <mxGeometry relative="1" as="geometry" />
        </mxCell>
        <mxCell id="0FeiDIV4A2AakAv4v174-46" value="Выбор оборудыванья из таблицы" style="rounded=0;whiteSpace=wrap;html=1;" vertex="1" parent="1">
          <mxGeometry x="1010" y="180" width="120" height="60" as="geometry" />
        </mxCell>
        <mxCell id="0FeiDIV4A2AakAv4v174-48" value="Редактирование оборудывания" style="text;html=1;align=center;verticalAlign=middle;whiteSpace=wrap;rounded=0;" vertex="1" parent="1">
          <mxGeometry x="860" y="170" width="60" height="30" as="geometry" />
        </mxCell>
        <mxCell id="0FeiDIV4A2AakAv4v174-52" style="edgeStyle=orthogonalEdgeStyle;rounded=0;orthogonalLoop=1;jettySize=auto;html=1;" edge="1" parent="1" source="0FeiDIV4A2AakAv4v174-49" target="0FeiDIV4A2AakAv4v174-51">
          <mxGeometry relative="1" as="geometry" />
        </mxCell>
        <mxCell id="0FeiDIV4A2AakAv4v174-54" style="edgeStyle=orthogonalEdgeStyle;rounded=0;orthogonalLoop=1;jettySize=auto;html=1;entryX=0.5;entryY=0;entryDx=0;entryDy=0;" edge="1" parent="1" source="0FeiDIV4A2AakAv4v174-49" target="0FeiDIV4A2AakAv4v174-53">
          <mxGeometry relative="1" as="geometry">
            <Array as="points">
              <mxPoint x="1260" y="260" />
              <mxPoint x="1070" y="260" />
            </Array>
          </mxGeometry>
        </mxCell>
        <mxCell id="0FeiDIV4A2AakAv4v174-49" value="Составное ли оборудывание" style="rounded=0;whiteSpace=wrap;html=1;" vertex="1" parent="1">
          <mxGeometry x="1200" y="180" width="120" height="60" as="geometry" />
        </mxCell>
        <mxCell id="0FeiDIV4A2AakAv4v174-57" style="edgeStyle=orthogonalEdgeStyle;rounded=0;orthogonalLoop=1;jettySize=auto;html=1;entryX=0.5;entryY=0;entryDx=0;entryDy=0;" edge="1" parent="1" source="0FeiDIV4A2AakAv4v174-51" target="0FeiDIV4A2AakAv4v174-55">
          <mxGeometry relative="1" as="geometry">
            <Array as="points">
              <mxPoint x="1260" y="360" />
              <mxPoint x="1070" y="360" />
            </Array>
          </mxGeometry>
        </mxCell>
        <mxCell id="0FeiDIV4A2AakAv4v174-51" value="перемещение" style="rounded=0;whiteSpace=wrap;html=1;" vertex="1" parent="1">
          <mxGeometry x="1200" y="280" width="120" height="60" as="geometry" />
        </mxCell>
        <mxCell id="0FeiDIV4A2AakAv4v174-56" style="edgeStyle=orthogonalEdgeStyle;rounded=0;orthogonalLoop=1;jettySize=auto;html=1;entryX=0.5;entryY=0;entryDx=0;entryDy=0;" edge="1" parent="1" source="0FeiDIV4A2AakAv4v174-53" target="0FeiDIV4A2AakAv4v174-55">
          <mxGeometry relative="1" as="geometry" />
        </mxCell>
        <mxCell id="0FeiDIV4A2AakAv4v174-61" style="edgeStyle=orthogonalEdgeStyle;rounded=0;orthogonalLoop=1;jettySize=auto;html=1;entryX=0.25;entryY=0;entryDx=0;entryDy=0;" edge="1" parent="1" source="0FeiDIV4A2AakAv4v174-53" target="0FeiDIV4A2AakAv4v174-58">
          <mxGeometry relative="1" as="geometry">
            <Array as="points">
              <mxPoint x="1070" y="350" />
              <mxPoint x="1230" y="350" />
            </Array>
          </mxGeometry>
        </mxCell>
        <mxCell id="0FeiDIV4A2AakAv4v174-53" value="замена" style="rounded=0;whiteSpace=wrap;html=1;" vertex="1" parent="1">
          <mxGeometry x="1010" y="280" width="120" height="60" as="geometry" />
        </mxCell>
        <mxCell id="0FeiDIV4A2AakAv4v174-55" value="куда ушёл компонент" style="rounded=0;whiteSpace=wrap;html=1;" vertex="1" parent="1">
          <mxGeometry x="1010" y="380" width="120" height="60" as="geometry" />
        </mxCell>
        <mxCell id="0FeiDIV4A2AakAv4v174-58" value="замена на что?" style="rounded=0;whiteSpace=wrap;html=1;" vertex="1" parent="1">
          <mxGeometry x="1200" y="380" width="120" height="60" as="geometry" />
        </mxCell>
        <mxCell id="0FeiDIV4A2AakAv4v174-63" style="edgeStyle=orthogonalEdgeStyle;rounded=0;orthogonalLoop=1;jettySize=auto;html=1;entryX=1;entryY=0.75;entryDx=0;entryDy=0;" edge="1" parent="1" source="0FeiDIV4A2AakAv4v174-49" target="0FeiDIV4A2AakAv4v174-49">
          <mxGeometry relative="1" as="geometry">
            <Array as="points">
              <mxPoint x="1340" y="200" />
              <mxPoint x="1340" y="225" />
            </Array>
          </mxGeometry>
        </mxCell>
        <mxCell id="0FeiDIV4A2AakAv4v174-64" value="В случае если составной компанент тоже составной" style="text;html=1;align=center;verticalAlign=middle;whiteSpace=wrap;rounded=0;" vertex="1" parent="1">
          <mxGeometry x="1350" y="200" width="150" height="30" as="geometry" />
        </mxCell>
        <mxCell id="0FeiDIV4A2AakAv4v174-68" value="" style="rounded=0;whiteSpace=wrap;html=1;" vertex="1" parent="1">
          <mxGeometry x="670" y="-590" width="490" height="390" as="geometry" />
        </mxCell>
        <mxCell id="0FeiDIV4A2AakAv4v174-69" value="Цельное оборудывание" style="text;html=1;align=center;verticalAlign=middle;whiteSpace=wrap;rounded=0;" vertex="1" parent="1">
          <mxGeometry x="680" y="-580" width="90" height="30" as="geometry" />
        </mxCell>
        <mxCell id="0FeiDIV4A2AakAv4v174-70" value="" style="endArrow=none;html=1;rounded=0;exitX=0.25;exitY=1;exitDx=0;exitDy=0;entryX=0.25;entryY=0;entryDx=0;entryDy=0;" edge="1" parent="1" source="0FeiDIV4A2AakAv4v174-68" target="0FeiDIV4A2AakAv4v174-68">
          <mxGeometry width="50" height="50" relative="1" as="geometry">
            <mxPoint x="870" y="-480" as="sourcePoint" />
            <mxPoint x="920" y="-530" as="targetPoint" />
          </mxGeometry>
        </mxCell>
        <mxCell id="0FeiDIV4A2AakAv4v174-71" value="Id" style="text;html=1;align=center;verticalAlign=middle;whiteSpace=wrap;rounded=0;" vertex="1" parent="1">
          <mxGeometry x="695" y="-530" width="60" height="30" as="geometry" />
        </mxCell>
        <mxCell id="0FeiDIV4A2AakAv4v174-72" value="Имя" style="text;html=1;align=center;verticalAlign=middle;whiteSpace=wrap;rounded=0;" vertex="1" parent="1">
          <mxGeometry x="695" y="-490" width="60" height="30" as="geometry" />
        </mxCell>
        <mxCell id="0FeiDIV4A2AakAv4v174-73" value="Уникальный Id оборудывания" style="text;html=1;align=center;verticalAlign=middle;whiteSpace=wrap;rounded=0;" vertex="1" parent="1">
          <mxGeometry x="695" y="-440" width="60" height="30" as="geometry" />
        </mxCell>
        <mxCell id="0FeiDIV4A2AakAv4v174-74" value="Серийный номер" style="text;html=1;align=center;verticalAlign=middle;whiteSpace=wrap;rounded=0;" vertex="1" parent="1">
          <mxGeometry x="695" y="-370" width="60" height="30" as="geometry" />
        </mxCell>
        <mxCell id="0FeiDIV4A2AakAv4v174-75" value="Дата покупки" style="text;html=1;align=center;verticalAlign=middle;whiteSpace=wrap;rounded=0;" vertex="1" parent="1">
          <mxGeometry x="695" y="-310" width="60" height="30" as="geometry" />
        </mxCell>
        <mxCell id="0FeiDIV4A2AakAv4v174-76" value="Поставщик" style="text;html=1;align=center;verticalAlign=middle;whiteSpace=wrap;rounded=0;" vertex="1" parent="1">
          <mxGeometry x="695" y="-250" width="60" height="30" as="geometry" />
        </mxCell>
        <mxCell id="0FeiDIV4A2AakAv4v174-77" value="Составное" style="text;html=1;align=center;verticalAlign=middle;whiteSpace=wrap;rounded=0;" vertex="1" parent="1">
          <mxGeometry x="930" y="-580" width="60" height="30" as="geometry" />
        </mxCell>
        <mxCell id="0FeiDIV4A2AakAv4v174-78" value="Id" style="text;html=1;align=center;verticalAlign=middle;whiteSpace=wrap;rounded=0;" vertex="1" parent="1">
          <mxGeometry x="930" y="-530" width="60" height="30" as="geometry" />
        </mxCell>
        <mxCell id="0FeiDIV4A2AakAv4v174-80" value="Id связанных компонентов через пробел" style="text;html=1;align=center;verticalAlign=middle;whiteSpace=wrap;rounded=0;" vertex="1" parent="1">
          <mxGeometry x="875" y="-490" width="170" height="30" as="geometry" />
        </mxCell>
      </root>
    </mxGraphModel>
  </diagram>
</mxfile>
